<svg xmlns="http://www.w3.org/2000/svg" viewBox="0 0 96 112" role="img" aria-labelledby="title">
  <title>Escudo de Noble Lions</title>
  <path fill="#1e3a8a" stroke="#07111b" stroke-width="5" d="M48 4 88 18v42c0 23-15 38-40 48C23 98 8 83 8 60V18z"/>
  <path fill="#eab308" d="M48 17c18 0 29 12 29 28 0 8-3 15-8 21l4 23-18-9-7 17-7-17-18 9 4-23c-5-6-8-13-8-21 0-16 11-28 29-28z"/>
  <path fill="#1e3a8a" d="m31 38 11 6-5 8-10-5zm34 0-11 6 5 8 10-5zM40 58h16l-8 11z"/>
  <path fill="#1e3a8a" d="M33 71c9 7 21 7 30 0-1 14-8 20-15 20s-14-6-15-20z"/>
  <path fill="#eab308" stroke="#07111b" stroke-width="3" d="M27 10h10l4 7 7-12 7 12 4-7h10l-5 15H32z"/>
</svg>
