<svg xmlns="http://www.w3.org/2000/svg" viewBox="0 0 96 112" role="img" aria-labelledby="title">
  <title>Escudo de Unión Empirista</title>
  <path fill="#0f172a" stroke="#f97316" stroke-width="5" d="M48 5 88 23v37c0 24-16 39-40 48C24 99 8 84 8 60V23z"/>
  <path fill="#f97316" d="M48 19c2 15 17 19 17 35 0 8-4 13-9 17 1-10-4-14-8-20-5 7-10 13-8 23-7-4-12-11-12-20 0-16 15-20 20-35z"/>
  <path fill="#fef08a" d="M48 47c8 8 12 14 8 25l-8 20-8-20c-4-11 0-17 8-25z"/>
  <path fill="#f97316" d="m18 76 25 14-6 10-23-16zm60 0L53 90l6 10 23-16z"/>
</svg>
