<svg xmlns="http://www.w3.org/2000/svg" viewBox="0 0 96 112" role="img" aria-labelledby="title">
  <title>Escudo de Sport Juvenil</title>
  <path fill="#f8fafc" stroke="#07111b" stroke-width="5" d="M48 4 87 18v39c0 24-16 41-39 51C25 98 9 81 9 57V18z"/>
  <path fill="#22c55e" d="M15 23h18v63c-11-10-18-20-18-31zm31-10h18v85c-5 3-10 5-16 8l-2-1zm31 10h4v32c0 13-4 23-12 31V20z"/>
  <circle cx="48" cy="52" r="17" fill="#f8fafc" stroke="#07111b" stroke-width="3"/>
  <path fill="#22c55e" d="M48 34c11 9 13 20 2 34-11-8-14-20-2-34zm-3 18c-8-8-15-7-20-3 6 9 13 12 22 8zm6 1c8-9 15-8 21-3-6 9-14 11-22 8z"/>
</svg>
